# xmcd
#
# Track frame offsets:
#	150
#	74887
#	147157
#	209842
#
# Disc length: 3676 seconds
#
# Revision: 1
# Processed by: cddbd v1.5.1PL0 Copyright (c) Steve Scherf et al.
# Submitted via: CDex 1.50Beta5
#
DISCID=470e5a04
DTITLE=Various Artist - 微塵子空挺楽団
DYEAR=1900
DGENRE=
TTITLE0=EPO/O baoligao
TTITLE1=Tugrug man from Texas
TTITLE2=Uzbekistan troupe
TTITLE3=津軽じょんがら・あいや節
EXTD=
EXTT0=
EXTT1=
EXTT2=
EXTT3=
PLAYORDER=
